<svg width="125" height="39" viewBox="0 0 125 39" fill="none" xmlns="http://www.w3.org/2000/svg">
<path d="M25.4224 15.8809H22.8691C21.7695 11.6543 17.9288 8.53805 13.3533 8.53805C7.92487 8.53268 3.52634 12.9362 3.52634 18.3642C3.52634 22.9448 6.65895 26.7959 10.9019 27.8847V30.3734C5.30185 29.2256 1.09106 24.275 1.09106 18.3374C1.09106 11.5524 6.59458 6.04932 13.3801 6.04932C19.3235 6.04932 24.2852 10.2705 25.4224 15.8809Z" fill="#0060EF"/>
<path d="M13.1494 18.23H21.0721V20.2038H15.3326V23.4273H20.7395V25.4012H15.3326V30.4966H13.1494V18.2246V18.23Z" fill="#0060EF"/>
<path d="M23.0999 18.23H31.0226V20.2038H25.283V23.4273H30.69V25.4012H25.283V30.4966H23.0999V18.2246V18.23Z" fill="#0060EF"/>
<path d="M37.0195 23.9532V22.1832H38.736V19.7749H40.8173V22.1832H43.1024V23.9532H40.8173V27.5951C40.8173 28.0135 40.8924 28.3406 41.0533 28.582C41.2142 28.8234 41.52 28.9467 41.9813 28.9467C42.1637 28.9467 42.3675 28.9253 42.5874 28.8877C42.8073 28.8448 42.979 28.7805 43.1077 28.6893V30.4378C42.8878 30.5397 42.6196 30.6148 42.3031 30.6524C41.9866 30.6953 41.7023 30.7114 41.461 30.7114C40.9085 30.7114 40.4525 30.6524 40.0985 30.529C39.7445 30.4056 39.4709 30.2233 39.2671 29.9766C39.0632 29.7298 38.9238 29.4187 38.8487 29.0486C38.7736 28.6786 38.736 28.2495 38.736 27.7667V23.9532H37.0195Z" fill="#0060EF"/>
<path d="M46.8303 23.347H46.8625C47.0234 22.9983 47.3077 22.6872 47.7207 22.403C48.1284 22.1187 48.6594 21.9792 49.3085 21.9792C49.861 21.9792 50.333 22.0704 50.7192 22.2582C51.1054 22.4459 51.4219 22.6872 51.6633 22.9876C51.9047 23.288 52.0817 23.6366 52.1836 24.0282C52.2855 24.4197 52.3392 24.8327 52.3392 25.2564V30.5074H50.2579V26.297C50.2579 26.0663 50.2472 25.8089 50.2257 25.5246C50.2043 25.2403 50.1399 24.9775 50.0433 24.7254C49.9468 24.4787 49.7912 24.2695 49.582 24.1032C49.3728 23.937 49.0885 23.8512 48.7345 23.8512C48.3805 23.8512 48.0962 23.9102 47.8602 24.0228C47.6242 24.1354 47.4257 24.2963 47.2701 24.4894C47.1146 24.6879 47.0019 24.9132 46.9322 25.1652C46.8625 25.4173 46.8303 25.6855 46.8303 25.9644V30.5074H44.749V17.4041H46.8303V23.347Z" fill="#0060EF"/>
<path d="M56.3623 27.0693C56.432 27.6915 56.6734 28.1796 57.0918 28.5229C57.5102 28.8662 58.009 29.0432 58.5991 29.0432C59.1194 29.0432 59.5539 28.9359 59.9079 28.7213C60.2619 28.5068 60.5677 28.2386 60.8359 27.9168L62.3271 29.0432C61.8443 29.6439 61.2972 30.073 60.6964 30.3251C60.0956 30.5772 59.4681 30.7059 58.8083 30.7059C58.186 30.7059 57.596 30.604 57.0381 30.3948C56.4856 30.1856 56.0029 29.8906 55.6006 29.5098C55.1983 29.129 54.8764 28.6677 54.6404 28.1313C54.4044 27.595 54.2864 26.9942 54.2864 26.3399C54.2864 25.6855 54.4044 25.0848 54.6404 24.5484C54.8764 24.0121 55.1983 23.5508 55.6006 23.17C56.0029 22.7892 56.4856 22.4942 57.0381 22.285C57.5906 22.0758 58.1807 21.9739 58.8083 21.9739C59.3876 21.9739 59.9133 22.0758 60.396 22.2796C60.8734 22.4834 61.2865 22.7731 61.6244 23.1539C61.9623 23.5347 62.2305 24.0067 62.4236 24.5645C62.6168 25.1223 62.7079 25.7713 62.7079 26.4954V27.0693H56.3623ZM60.6267 25.5085C60.616 24.8971 60.4229 24.4143 60.0527 24.0603C59.6826 23.7063 59.1677 23.5293 58.5079 23.5293C57.8857 23.5293 57.3922 23.7063 57.0274 24.0657C56.6627 24.4251 56.4427 24.9024 56.3623 25.5032H60.6267V25.5085Z" fill="#0060EF"/>
<path d="M69.9656 18.23H72.1487V28.5228H77.368V30.4966H69.9656V18.2246V18.23Z" fill="#0060EF"/>
<path d="M78.5105 19.3564C78.5105 19.0239 78.6339 18.7289 78.8806 18.4821C79.1274 18.2354 79.4438 18.1067 79.8247 18.1067C80.2055 18.1067 80.5274 18.2247 80.7849 18.4607C81.0423 18.6967 81.1764 18.9971 81.1764 19.3511C81.1764 19.7051 81.0477 20.0054 80.7849 20.2414C80.522 20.4774 80.2055 20.5954 79.8247 20.5954C79.4438 20.5954 79.1274 20.4721 78.8806 20.2253C78.6339 19.9786 78.5105 19.6836 78.5105 19.3511V19.3564ZM78.8055 22.1831H80.8868V30.5021H78.8055V22.1831Z" fill="#0060EF"/>
<path d="M83.1934 22.1831H85.1673V23.4811H85.1995C85.3819 23.0895 85.6823 22.7409 86.09 22.4298C86.4976 22.1241 87.0501 21.9685 87.7474 21.9685C89.0509 21.9685 89.9199 22.4834 90.349 23.5132C90.6494 22.9822 91.0249 22.5907 91.4755 22.344C91.926 22.0972 92.4624 21.9685 93.0847 21.9685C93.6372 21.9685 94.1092 22.0597 94.4901 22.2474C94.8709 22.4351 95.182 22.6872 95.418 23.0091C95.6541 23.3309 95.8257 23.7117 95.9276 24.1461C96.0295 24.5806 96.0832 25.0419 96.0832 25.5407V30.4967H94.0019V25.7821C94.0019 25.53 93.9805 25.2832 93.9322 25.0472C93.8839 24.8112 93.8035 24.6021 93.6908 24.4251C93.5728 24.2481 93.4172 24.1032 93.2241 24.0013C93.0257 23.8994 92.7736 23.8458 92.4624 23.8458C92.1513 23.8458 91.867 23.9048 91.6417 24.0281C91.4165 24.1515 91.2287 24.3124 91.0892 24.5162C90.9444 24.7201 90.8425 24.9507 90.7781 25.2081C90.7138 25.471 90.6816 25.7338 90.6816 25.9966V30.5021H88.6003V25.5461C88.6003 25.0258 88.4877 24.6128 88.2731 24.3071C88.0532 24.0013 87.6884 23.8458 87.1789 23.8458C86.8302 23.8458 86.5405 23.9048 86.3045 24.0174C86.0685 24.1301 85.87 24.291 85.7145 24.4841C85.5589 24.6771 85.4463 24.9078 85.3765 25.1599C85.3068 25.412 85.2746 25.6801 85.2746 25.9591V30.5021H83.1934V22.1831Z" fill="#0060EF"/>
<path d="M98.1001 19.3564C98.1001 19.0239 98.2235 18.7289 98.4702 18.4821C98.717 18.2354 99.0334 18.1067 99.4143 18.1067C99.7951 18.1067 100.117 18.2247 100.374 18.4607C100.632 18.6967 100.766 18.9971 100.766 19.3511C100.766 19.7051 100.637 20.0054 100.374 20.2414C100.112 20.4774 99.7951 20.5954 99.4143 20.5954C99.0334 20.5954 98.717 20.4721 98.4702 20.2253C98.2235 19.9786 98.1001 19.6836 98.1001 19.3511V19.3564ZM98.3951 22.1831H100.476V30.5021H98.3951V22.1831Z" fill="#0060EF"/>
<path d="M101.892 23.9532V22.1832H103.609V19.7749H105.69V22.1832H107.975V23.9532H105.69V27.5951C105.69 28.0135 105.765 28.3406 105.926 28.582C106.087 28.8234 106.393 28.9467 106.854 28.9467C107.036 28.9467 107.24 28.9253 107.46 28.8877C107.68 28.8448 107.852 28.7805 107.981 28.6893V30.4378C107.761 30.5397 107.492 30.6148 107.176 30.6524C106.859 30.6953 106.575 30.7114 106.334 30.7114C105.781 30.7114 105.325 30.6524 104.971 30.529C104.617 30.4056 104.344 30.2233 104.14 29.9766C103.936 29.7298 103.797 29.4187 103.721 29.0486C103.646 28.6786 103.609 28.2495 103.609 27.7667V23.9532H101.892Z" fill="#0060EF"/>
<path d="M112.878 28.2549H110.421V30.7114H112.878V28.2549Z" fill="#0060EF"/>
<path d="M110.421 23.3418V25.7983H115.34V30.7114H117.797V23.3418H110.421Z" fill="#0060EF"/>
<path d="M110.475 18.1013V20.6222H120.57V30.7112H123.091V18.1013H110.475Z" fill="#0060EF"/>
</svg>
