<svg width="80" height="80" viewBox="0 0 80 80" fill="none" xmlns="http://www.w3.org/2000/svg">
<mask id="mask0_401_6440" style="mask-type:alpha" maskUnits="userSpaceOnUse" x="12" y="13" width="56" height="55">
<path d="M53.75 68L53.75 54.25L67.5 54.25M42.75 68L42.75 43.25L67.5 43.25" stroke="#0060EF" stroke-width="5.5"/>
<rect x="62" y="62.5" width="5.5" height="5.5" fill="#0060EF"/>
<path d="M40.2217 13C53.5691 13.0007 64.7113 22.4359 67.3486 35H61.6514C59.1279 25.5258 50.4902 18.5456 40.2217 18.5449C27.9738 18.545 18.0445 28.4745 18.0439 40.7227C18.044 50.9928 25.0248 59.6312 34.5 62.1543V67.8516C21.9349 65.215 12.5 54.0719 12.5 40.7227C12.5005 25.4124 24.9117 13.0001 40.2217 13Z" fill="#0060EF"/>
</mask>
<g mask="url(#mask0_401_6440)">
<rect x="12.5" y="13" width="55" height="55" fill="#0060EF"/>
</g>
</svg>
